<svg xmlns="http://www.w3.org/2000/svg" viewBox="0 0 900 389" width="900" height="389" font-family="Segoe UI, Arial, sans-serif">
<defs><marker id="ah-ink" viewBox="0 0 10 10" refX="9" refY="5" markerWidth="7" markerHeight="7" orient="auto-start-reverse"><path d="M0,0 L10,5 L0,10 z" fill="#1f2937"/></marker><marker id="ah-red" viewBox="0 0 10 10" refX="9" refY="5" markerWidth="7" markerHeight="7" orient="auto-start-reverse"><path d="M0,0 L10,5 L0,10 z" fill="#e4572e"/></marker><marker id="ah-blue" viewBox="0 0 10 10" refX="9" refY="5" markerWidth="7" markerHeight="7" orient="auto-start-reverse"><path d="M0,0 L10,5 L0,10 z" fill="#2563eb"/></marker><marker id="ah-green" viewBox="0 0 10 10" refX="9" refY="5" markerWidth="7" markerHeight="7" orient="auto-start-reverse"><path d="M0,0 L10,5 L0,10 z" fill="#059669"/></marker><marker id="ah-orange" viewBox="0 0 10 10" refX="9" refY="5" markerWidth="7" markerHeight="7" orient="auto-start-reverse"><path d="M0,0 L10,5 L0,10 z" fill="#f59e0b"/></marker><marker id="ah-purple" viewBox="0 0 10 10" refX="9" refY="5" markerWidth="7" markerHeight="7" orient="auto-start-reverse"><path d="M0,0 L10,5 L0,10 z" fill="#7c3aed"/></marker><marker id="ah-soft" viewBox="0 0 10 10" refX="9" refY="5" markerWidth="7" markerHeight="7" orient="auto-start-reverse"><path d="M0,0 L10,5 L0,10 z" fill="#6b7280"/></marker><marker id="ah-teal" viewBox="0 0 10 10" refX="9" refY="5" markerWidth="7" markerHeight="7" orient="auto-start-reverse"><path d="M0,0 L10,5 L0,10 z" fill="#0d9488"/></marker><marker id="ah-pink" viewBox="0 0 10 10" refX="9" refY="5" markerWidth="7" markerHeight="7" orient="auto-start-reverse"><path d="M0,0 L10,5 L0,10 z" fill="#db2777"/></marker><marker id="ah-brown" viewBox="0 0 10 10" refX="9" refY="5" markerWidth="7" markerHeight="7" orient="auto-start-reverse"><path d="M0,0 L10,5 L0,10 z" fill="#92400e"/></marker></defs>
<rect x="0" y="0" width="900" height="389" rx="12" fill="#ffffff" stroke="#e5e7eb"/>
<text x="450" y="28" text-anchor="middle" font-size="18" font-weight="700" fill="#1f2937">Sơ đồ phòng tuyến sông Như Nguyệt (1077)</text>
<g transform="translate(0,44)">
<rect x="0" y="0" width="620" height="120" rx="0" fill="#fde2da" stroke="#fde2da" stroke-width="1.5"/><text x="310" y="40" text-anchor="middle" font-size="16" fill="#e4572e" font-weight="700"><tspan x="310" dy="0">Quân Tống (Quách Quỳ, Triệu Tiết)</tspan></text><line x1="90" y1="60" x2="100" y2="112" stroke="#e4572e" stroke-width="2.5" marker-end="url(#ah-red)" stroke-linecap="round"/><line x1="180" y1="60" x2="190" y2="112" stroke="#e4572e" stroke-width="2.5" marker-end="url(#ah-red)" stroke-linecap="round"/><line x1="270" y1="60" x2="280" y2="112" stroke="#e4572e" stroke-width="2.5" marker-end="url(#ah-red)" stroke-linecap="round"/><line x1="360" y1="60" x2="370" y2="112" stroke="#e4572e" stroke-width="2.5" marker-end="url(#ah-red)" stroke-linecap="round"/><line x1="450" y1="60" x2="460" y2="112" stroke="#e4572e" stroke-width="2.5" marker-end="url(#ah-red)" stroke-linecap="round"/><line x1="540" y1="60" x2="550" y2="112" stroke="#e4572e" stroke-width="2.5" marker-end="url(#ah-red)" stroke-linecap="round"/><path d="M0,130 C150,115 300,150 450,128 S600,120 620,130 L620,175 C470,165 300,195 150,170 S20,175 0,178 Z" fill="#dbeafe" stroke="#2563eb" stroke-width="2" stroke-linejoin="round" stroke-linecap="round"/><text x="310" y="158" text-anchor="middle" font-size="15" fill="#2563eb" font-weight="700"><tspan x="310" dy="0">Sông Như Nguyệt (sông Cầu)</tspan></text><line x1="10" y1="195" x2="16" y2="182" stroke="#92400e" stroke-width="3" stroke-linecap="round"/><line x1="26" y1="195" x2="32" y2="182" stroke="#92400e" stroke-width="3" stroke-linecap="round"/><line x1="42" y1="195" x2="48" y2="182" stroke="#92400e" stroke-width="3" stroke-linecap="round"/><line x1="58" y1="195" x2="64" y2="182" stroke="#92400e" stroke-width="3" stroke-linecap="round"/><line x1="74" y1="195" x2="80" y2="182" stroke="#92400e" stroke-width="3" stroke-linecap="round"/><line x1="90" y1="195" x2="96" y2="182" stroke="#92400e" stroke-width="3" stroke-linecap="round"/><line x1="106" y1="195" x2="112" y2="182" stroke="#92400e" stroke-width="3" stroke-linecap="round"/><line x1="122" y1="195" x2="128" y2="182" stroke="#92400e" stroke-width="3" stroke-linecap="round"/><line x1="138" y1="195" x2="144" y2="182" stroke="#92400e" stroke-width="3" stroke-linecap="round"/><line x1="154" y1="195" x2="160" y2="182" stroke="#92400e" stroke-width="3" stroke-linecap="round"/><line x1="170" y1="195" x2="176" y2="182" stroke="#92400e" stroke-width="3" stroke-linecap="round"/><line x1="186" y1="195" x2="192" y2="182" stroke="#92400e" stroke-width="3" stroke-linecap="round"/><line x1="202" y1="195" x2="208" y2="182" stroke="#92400e" stroke-width="3" stroke-linecap="round"/><line x1="218" y1="195" x2="224" y2="182" stroke="#92400e" stroke-width="3" stroke-linecap="round"/><line x1="234" y1="195" x2="240" y2="182" stroke="#92400e" stroke-width="3" stroke-linecap="round"/><line x1="250" y1="195" x2="256" y2="182" stroke="#92400e" stroke-width="3" stroke-linecap="round"/><line x1="266" y1="195" x2="272" y2="182" stroke="#92400e" stroke-width="3" stroke-linecap="round"/><line x1="282" y1="195" x2="288" y2="182" stroke="#92400e" stroke-width="3" stroke-linecap="round"/><line x1="298" y1="195" x2="304" y2="182" stroke="#92400e" stroke-width="3" stroke-linecap="round"/><line x1="314" y1="195" x2="320" y2="182" stroke="#92400e" stroke-width="3" stroke-linecap="round"/><line x1="330" y1="195" x2="336" y2="182" stroke="#92400e" stroke-width="3" stroke-linecap="round"/><line x1="346" y1="195" x2="352" y2="182" stroke="#92400e" stroke-width="3" stroke-linecap="round"/><line x1="362" y1="195" x2="368" y2="182" stroke="#92400e" stroke-width="3" stroke-linecap="round"/><line x1="378" y1="195" x2="384" y2="182" stroke="#92400e" stroke-width="3" stroke-linecap="round"/><line x1="394" y1="195" x2="400" y2="182" stroke="#92400e" stroke-width="3" stroke-linecap="round"/><line x1="410" y1="195" x2="416" y2="182" stroke="#92400e" stroke-width="3" stroke-linecap="round"/><line x1="426" y1="195" x2="432" y2="182" stroke="#92400e" stroke-width="3" stroke-linecap="round"/><line x1="442" y1="195" x2="448" y2="182" stroke="#92400e" stroke-width="3" stroke-linecap="round"/><line x1="458" y1="195" x2="464" y2="182" stroke="#92400e" stroke-width="3" stroke-linecap="round"/><line x1="474" y1="195" x2="480" y2="182" stroke="#92400e" stroke-width="3" stroke-linecap="round"/><line x1="490" y1="195" x2="496" y2="182" stroke="#92400e" stroke-width="3" stroke-linecap="round"/><line x1="506" y1="195" x2="512" y2="182" stroke="#92400e" stroke-width="3" stroke-linecap="round"/><line x1="522" y1="195" x2="528" y2="182" stroke="#92400e" stroke-width="3" stroke-linecap="round"/><line x1="538" y1="195" x2="544" y2="182" stroke="#92400e" stroke-width="3" stroke-linecap="round"/><line x1="554" y1="195" x2="560" y2="182" stroke="#92400e" stroke-width="3" stroke-linecap="round"/><line x1="570" y1="195" x2="576" y2="182" stroke="#92400e" stroke-width="3" stroke-linecap="round"/><line x1="586" y1="195" x2="592" y2="182" stroke="#92400e" stroke-width="3" stroke-linecap="round"/><line x1="602" y1="195" x2="608" y2="182" stroke="#92400e" stroke-width="3" stroke-linecap="round"/><line x1="618" y1="195" x2="624" y2="182" stroke="#92400e" stroke-width="3" stroke-linecap="round"/><text x="310" y="218" text-anchor="middle" font-size="13" fill="#92400e" font-weight="700"><tspan x="310" dy="0">Chiến lũy, cọc tre dày đặc dọc bờ Nam</tspan></text><rect x="0" y="230" width="620" height="110" rx="0" fill="#d1fae5" stroke="#d1fae5" stroke-width="1.5"/><text x="310" y="265" text-anchor="middle" font-size="16" fill="#059669" font-weight="700"><tspan x="310" dy="0">Quân Đại Việt (Lý Thường Kiệt)</tspan></text><text x="310" y="300" text-anchor="middle" font-size="14" fill="#1f2937" font-style="italic"><tspan x="310" dy="0">"Nam quốc sơn hà Nam đế cư…"</tspan></text><text x="310" y="325" text-anchor="middle" font-size="13" fill="#6b7280"><tspan x="310" dy="0">↓ Thăng Long</tspan></text><rect x="640" y="10" width="245" height="330" rx="8" fill="#f8fafc" stroke="#e5e7eb" stroke-width="1.5"/><text x="656" y="103.8" text-anchor="start" font-size="13.5" fill="#1f2937"><tspan x="656" dy="0">Kháng chiến chống Tống</tspan><tspan x="656" dy="16.875">(1075 – 1077)</tspan><tspan x="656" dy="16.875"> </tspan><tspan x="656" dy="16.875">GĐ 1 (1075): "tiến công</tspan><tspan x="656" dy="16.875">trước để tự vệ" – đánh</tspan><tspan x="656" dy="16.875">châu Ung, Khâm, Liêm</tspan><tspan x="656" dy="16.875"> </tspan><tspan x="656" dy="16.875">GĐ 2 (1077): chặn giặc</tspan><tspan x="656" dy="16.875">ở phòng tuyến; phản công</tspan><tspan x="656" dy="16.875">→ chủ động giảng hòa</tspan></text>
</g>
</svg>
