<svg xmlns="http://www.w3.org/2000/svg" viewBox="0 0 900 299" width="900" height="299" font-family="Segoe UI, Arial, sans-serif">
<defs><marker id="ah-ink" viewBox="0 0 10 10" refX="9" refY="5" markerWidth="7" markerHeight="7" orient="auto-start-reverse"><path d="M0,0 L10,5 L0,10 z" fill="#1f2937"/></marker><marker id="ah-red" viewBox="0 0 10 10" refX="9" refY="5" markerWidth="7" markerHeight="7" orient="auto-start-reverse"><path d="M0,0 L10,5 L0,10 z" fill="#e4572e"/></marker><marker id="ah-blue" viewBox="0 0 10 10" refX="9" refY="5" markerWidth="7" markerHeight="7" orient="auto-start-reverse"><path d="M0,0 L10,5 L0,10 z" fill="#2563eb"/></marker><marker id="ah-green" viewBox="0 0 10 10" refX="9" refY="5" markerWidth="7" markerHeight="7" orient="auto-start-reverse"><path d="M0,0 L10,5 L0,10 z" fill="#059669"/></marker><marker id="ah-orange" viewBox="0 0 10 10" refX="9" refY="5" markerWidth="7" markerHeight="7" orient="auto-start-reverse"><path d="M0,0 L10,5 L0,10 z" fill="#f59e0b"/></marker><marker id="ah-purple" viewBox="0 0 10 10" refX="9" refY="5" markerWidth="7" markerHeight="7" orient="auto-start-reverse"><path d="M0,0 L10,5 L0,10 z" fill="#7c3aed"/></marker><marker id="ah-soft" viewBox="0 0 10 10" refX="9" refY="5" markerWidth="7" markerHeight="7" orient="auto-start-reverse"><path d="M0,0 L10,5 L0,10 z" fill="#6b7280"/></marker><marker id="ah-teal" viewBox="0 0 10 10" refX="9" refY="5" markerWidth="7" markerHeight="7" orient="auto-start-reverse"><path d="M0,0 L10,5 L0,10 z" fill="#0d9488"/></marker><marker id="ah-pink" viewBox="0 0 10 10" refX="9" refY="5" markerWidth="7" markerHeight="7" orient="auto-start-reverse"><path d="M0,0 L10,5 L0,10 z" fill="#db2777"/></marker><marker id="ah-brown" viewBox="0 0 10 10" refX="9" refY="5" markerWidth="7" markerHeight="7" orient="auto-start-reverse"><path d="M0,0 L10,5 L0,10 z" fill="#92400e"/></marker></defs>
<rect x="0" y="0" width="900" height="299" rx="12" fill="#ffffff" stroke="#e5e7eb"/>
<text x="450" y="28" text-anchor="middle" font-size="18" font-weight="700" fill="#1f2937">Tam giác cân, tam giác đều, tam giác vuông cân</text>
<g transform="translate(0,44)">
<rect x="6" y="0" width="288" height="250" rx="8" fill="#f8fafc" stroke="#e5e7eb" stroke-width="1.5"/><text x="150" y="24" text-anchor="middle" font-size="15" fill="#1f2937" font-weight="700"><tspan x="150" dy="0">Tam giác cân tại A</tspan></text><text x="150" y="235" text-anchor="middle" font-size="13" fill="#1f2937"><tspan x="150" dy="0">AB = AC ⇔ B̂ = Ĉ</tspan></text><polygon points="150,62 80,200 220,200" fill="#dbeafe" stroke="#1f2937" stroke-width="2" stroke-linejoin="round"/><line x1="120.4" y1="133.7" x2="109.6" y2="128.3" stroke="#e4572e" stroke-width="2" stroke-linecap="round"/><line x1="190.4" y1="128.3" x2="179.6" y2="133.7" stroke="#e4572e" stroke-width="2" stroke-linecap="round"/><path d="M104,200 A24,24 0 0 0 90.9,178.6" fill="none" stroke="#e4572e" stroke-width="2"/><path d="M209.1,178.6 A24,24 0 0 0 196,200" fill="none" stroke="#e4572e" stroke-width="2"/><text x="150" y="54" text-anchor="middle" font-size="14" fill="#1f2937" font-weight="700"><tspan x="150" dy="0">A</tspan></text><text x="70" y="216" text-anchor="middle" font-size="14" fill="#1f2937" font-weight="700"><tspan x="70" dy="0">B</tspan></text><text x="230" y="216" text-anchor="middle" font-size="14" fill="#1f2937" font-weight="700"><tspan x="230" dy="0">C</tspan></text><rect x="306" y="0" width="288" height="250" rx="8" fill="#f8fafc" stroke="#e5e7eb" stroke-width="1.5"/><text x="450" y="24" text-anchor="middle" font-size="15" fill="#1f2937" font-weight="700"><tspan x="450" dy="0">Tam giác đều</tspan></text><text x="450" y="235" text-anchor="middle" font-size="13" fill="#1f2937"><tspan x="450" dy="0">3 cạnh bằng nhau, mỗi góc 60°</tspan></text><polygon points="450,61.4 370,200 530,200" fill="#d1fae5" stroke="#1f2937" stroke-width="2" stroke-linejoin="round"/><line x1="415.2" y1="133.7" x2="404.8" y2="127.7" stroke="#e4572e" stroke-width="2" stroke-linecap="round"/><line x1="495.2" y1="127.7" x2="484.8" y2="133.7" stroke="#e4572e" stroke-width="2" stroke-linecap="round"/><line x1="450" y1="194" x2="450" y2="206" stroke="#e4572e" stroke-width="2" stroke-linecap="round"/><path d="M390,200 A20,20 0 0 0 380,182.7" fill="none" stroke="#059669" stroke-width="2"/><path d="M520,182.7 A20,20 0 0 0 510,200" fill="none" stroke="#059669" stroke-width="2"/><path d="M440,78.8 A20,20 0 0 0 460,78.8" fill="none" stroke="#059669" stroke-width="2"/><text x="450" y="190" text-anchor="middle" font-size="12" fill="#059669"><tspan x="450" dy="0">60°</tspan></text><rect x="606" y="0" width="288" height="250" rx="8" fill="#f8fafc" stroke="#e5e7eb" stroke-width="1.5"/><text x="750" y="24" text-anchor="middle" font-size="15" fill="#1f2937" font-weight="700"><tspan x="750" dy="0">Tam giác vuông cân tại A</tspan></text><text x="750" y="235" text-anchor="middle" font-size="13" fill="#1f2937"><tspan x="750" dy="0">AB = AC, Â = 90°, B̂ = Ĉ = 45°</tspan></text><polygon points="680,200 680,70 810,200" fill="#fef3c7" stroke="#1f2937" stroke-width="2" stroke-linejoin="round"/><polyline points="694,200 694,186 680,186" fill="none" stroke="#1f2937" stroke-width="1.5" stroke-linejoin="round" stroke-linecap="round"/><line x1="674" y1="135" x2="686" y2="135" stroke="#e4572e" stroke-width="2" stroke-linecap="round"/><line x1="745" y1="194" x2="745" y2="206" stroke="#e4572e" stroke-width="2" stroke-linecap="round"/><path d="M680,96 A26,26 0 0 0 698.4,88.4" fill="none" stroke="#f59e0b" stroke-width="2"/><path d="M791.6,181.6 A26,26 0 0 0 784,200" fill="none" stroke="#f59e0b" stroke-width="2"/><text x="668" y="216" text-anchor="middle" font-size="14" fill="#1f2937" font-weight="700"><tspan x="668" dy="0">A</tspan></text><text x="668" y="70" text-anchor="middle" font-size="14" fill="#1f2937" font-weight="700"><tspan x="668" dy="0">B</tspan></text><text x="822" y="206" text-anchor="middle" font-size="14" fill="#1f2937" font-weight="700"><tspan x="822" dy="0">C</tspan></text>
</g>
</svg>
