<svg xmlns="http://www.w3.org/2000/svg" viewBox="0 0 900 379" width="900" height="379" font-family="Segoe UI, Arial, sans-serif">
<defs><marker id="ah-ink" viewBox="0 0 10 10" refX="9" refY="5" markerWidth="7" markerHeight="7" orient="auto-start-reverse"><path d="M0,0 L10,5 L0,10 z" fill="#1f2937"/></marker><marker id="ah-red" viewBox="0 0 10 10" refX="9" refY="5" markerWidth="7" markerHeight="7" orient="auto-start-reverse"><path d="M0,0 L10,5 L0,10 z" fill="#e4572e"/></marker><marker id="ah-blue" viewBox="0 0 10 10" refX="9" refY="5" markerWidth="7" markerHeight="7" orient="auto-start-reverse"><path d="M0,0 L10,5 L0,10 z" fill="#2563eb"/></marker><marker id="ah-green" viewBox="0 0 10 10" refX="9" refY="5" markerWidth="7" markerHeight="7" orient="auto-start-reverse"><path d="M0,0 L10,5 L0,10 z" fill="#059669"/></marker><marker id="ah-orange" viewBox="0 0 10 10" refX="9" refY="5" markerWidth="7" markerHeight="7" orient="auto-start-reverse"><path d="M0,0 L10,5 L0,10 z" fill="#f59e0b"/></marker><marker id="ah-purple" viewBox="0 0 10 10" refX="9" refY="5" markerWidth="7" markerHeight="7" orient="auto-start-reverse"><path d="M0,0 L10,5 L0,10 z" fill="#7c3aed"/></marker><marker id="ah-soft" viewBox="0 0 10 10" refX="9" refY="5" markerWidth="7" markerHeight="7" orient="auto-start-reverse"><path d="M0,0 L10,5 L0,10 z" fill="#6b7280"/></marker><marker id="ah-teal" viewBox="0 0 10 10" refX="9" refY="5" markerWidth="7" markerHeight="7" orient="auto-start-reverse"><path d="M0,0 L10,5 L0,10 z" fill="#0d9488"/></marker><marker id="ah-pink" viewBox="0 0 10 10" refX="9" refY="5" markerWidth="7" markerHeight="7" orient="auto-start-reverse"><path d="M0,0 L10,5 L0,10 z" fill="#db2777"/></marker><marker id="ah-brown" viewBox="0 0 10 10" refX="9" refY="5" markerWidth="7" markerHeight="7" orient="auto-start-reverse"><path d="M0,0 L10,5 L0,10 z" fill="#92400e"/></marker></defs>
<rect x="0" y="0" width="900" height="379" rx="12" fill="#ffffff" stroke="#e5e7eb"/>
<text x="450" y="28" text-anchor="middle" font-size="18" font-weight="700" fill="#1f2937">Đại lượng tỉ lệ thuận và tỉ lệ nghịch</text>
<g transform="translate(0,44)">
<rect x="8" y="0" width="434" height="330" rx="8" fill="#dbeafe" stroke="#2563eb" stroke-width="1.5"/><rect x="458" y="0" width="434" height="330" rx="8" fill="#fef3c7" stroke="#f59e0b" stroke-width="1.5"/><text x="225" y="26" text-anchor="middle" font-size="16" fill="#2563eb" font-weight="700"><tspan x="225" dy="0">Tỉ lệ thuận: y = 2x</tspan></text><text x="675" y="26" text-anchor="middle" font-size="16" fill="#f59e0b" font-weight="700"><tspan x="675" dy="0">Tỉ lệ nghịch: x · y = 12</tspan></text><rect x="40" y="45" width="70" height="30" rx="0" fill="#ffffff" stroke="#334155" stroke-width="1"/><text x="75" y="65" text-anchor="middle" font-size="14" fill="#1f2937" font-weight="700"><tspan x="75" dy="0">x</tspan></text><rect x="110" y="45" width="70" height="30" rx="0" fill="#ffffff" stroke="#334155" stroke-width="1"/><text x="145" y="65" text-anchor="middle" font-size="14" fill="#1f2937" font-weight="700"><tspan x="145" dy="0">1</tspan></text><rect x="180" y="45" width="70" height="30" rx="0" fill="#ffffff" stroke="#334155" stroke-width="1"/><text x="215" y="65" text-anchor="middle" font-size="14" fill="#1f2937" font-weight="700"><tspan x="215" dy="0">2</tspan></text><rect x="250" y="45" width="70" height="30" rx="0" fill="#ffffff" stroke="#334155" stroke-width="1"/><text x="285" y="65" text-anchor="middle" font-size="14" fill="#1f2937" font-weight="700"><tspan x="285" dy="0">3</tspan></text><rect x="320" y="45" width="70" height="30" rx="0" fill="#ffffff" stroke="#334155" stroke-width="1"/><text x="355" y="65" text-anchor="middle" font-size="14" fill="#1f2937" font-weight="700"><tspan x="355" dy="0">4</tspan></text><rect x="40" y="75" width="70" height="30" rx="0" fill="#ffffff" stroke="#334155" stroke-width="1"/><text x="75" y="95" text-anchor="middle" font-size="14" fill="#1f2937"><tspan x="75" dy="0">y</tspan></text><rect x="110" y="75" width="70" height="30" rx="0" fill="#ffffff" stroke="#334155" stroke-width="1"/><text x="145" y="95" text-anchor="middle" font-size="14" fill="#1f2937"><tspan x="145" dy="0">2</tspan></text><rect x="180" y="75" width="70" height="30" rx="0" fill="#ffffff" stroke="#334155" stroke-width="1"/><text x="215" y="95" text-anchor="middle" font-size="14" fill="#1f2937"><tspan x="215" dy="0">4</tspan></text><rect x="250" y="75" width="70" height="30" rx="0" fill="#ffffff" stroke="#334155" stroke-width="1"/><text x="285" y="95" text-anchor="middle" font-size="14" fill="#1f2937"><tspan x="285" dy="0">6</tspan></text><rect x="320" y="75" width="70" height="30" rx="0" fill="#ffffff" stroke="#334155" stroke-width="1"/><text x="355" y="95" text-anchor="middle" font-size="14" fill="#1f2937"><tspan x="355" dy="0">8</tspan></text><rect x="490" y="45" width="62" height="30" rx="0" fill="#ffffff" stroke="#334155" stroke-width="1"/><text x="521" y="65" text-anchor="middle" font-size="14" fill="#1f2937" font-weight="700"><tspan x="521" dy="0">x</tspan></text><rect x="552" y="45" width="62" height="30" rx="0" fill="#ffffff" stroke="#334155" stroke-width="1"/><text x="583" y="65" text-anchor="middle" font-size="14" fill="#1f2937" font-weight="700"><tspan x="583" dy="0">1</tspan></text><rect x="614" y="45" width="62" height="30" rx="0" fill="#ffffff" stroke="#334155" stroke-width="1"/><text x="645" y="65" text-anchor="middle" font-size="14" fill="#1f2937" font-weight="700"><tspan x="645" dy="0">2</tspan></text><rect x="676" y="45" width="62" height="30" rx="0" fill="#ffffff" stroke="#334155" stroke-width="1"/><text x="707" y="65" text-anchor="middle" font-size="14" fill="#1f2937" font-weight="700"><tspan x="707" dy="0">3</tspan></text><rect x="738" y="45" width="62" height="30" rx="0" fill="#ffffff" stroke="#334155" stroke-width="1"/><text x="769" y="65" text-anchor="middle" font-size="14" fill="#1f2937" font-weight="700"><tspan x="769" dy="0">4</tspan></text><rect x="800" y="45" width="62" height="30" rx="0" fill="#ffffff" stroke="#334155" stroke-width="1"/><text x="831" y="65" text-anchor="middle" font-size="14" fill="#1f2937" font-weight="700"><tspan x="831" dy="0">6</tspan></text><rect x="490" y="75" width="62" height="30" rx="0" fill="#ffffff" stroke="#334155" stroke-width="1"/><text x="521" y="95" text-anchor="middle" font-size="14" fill="#1f2937"><tspan x="521" dy="0">y</tspan></text><rect x="552" y="75" width="62" height="30" rx="0" fill="#ffffff" stroke="#334155" stroke-width="1"/><text x="583" y="95" text-anchor="middle" font-size="14" fill="#1f2937"><tspan x="583" dy="0">12</tspan></text><rect x="614" y="75" width="62" height="30" rx="0" fill="#ffffff" stroke="#334155" stroke-width="1"/><text x="645" y="95" text-anchor="middle" font-size="14" fill="#1f2937"><tspan x="645" dy="0">6</tspan></text><rect x="676" y="75" width="62" height="30" rx="0" fill="#ffffff" stroke="#334155" stroke-width="1"/><text x="707" y="95" text-anchor="middle" font-size="14" fill="#1f2937"><tspan x="707" dy="0">4</tspan></text><rect x="738" y="75" width="62" height="30" rx="0" fill="#ffffff" stroke="#334155" stroke-width="1"/><text x="769" y="95" text-anchor="middle" font-size="14" fill="#1f2937"><tspan x="769" dy="0">3</tspan></text><rect x="800" y="75" width="62" height="30" rx="0" fill="#ffffff" stroke="#334155" stroke-width="1"/><text x="831" y="95" text-anchor="middle" font-size="14" fill="#1f2937"><tspan x="831" dy="0">2</tspan></text><line x1="60" y1="300" x2="410" y2="300" stroke="#1f2937" stroke-width="2" marker-end="url(#ah-ink)" stroke-linecap="round"/><line x1="60" y1="300" x2="60" y2="118" stroke="#1f2937" stroke-width="2" marker-end="url(#ah-ink)" stroke-linecap="round"/><polyline points="60,300 135.6,262.2 211.1,224.4 286.7,186.7 362.2,148.9" fill="none" stroke="#2563eb" stroke-width="2.5" stroke-linejoin="round" stroke-linecap="round"/><circle cx="60" cy="300" r="4.5" fill="#2563eb"/><circle cx="135.6" cy="262.2" r="4.5" fill="#2563eb"/><circle cx="211.1" cy="224.4" r="4.5" fill="#2563eb"/><circle cx="286.7" cy="186.7" r="4.5" fill="#2563eb"/><circle cx="362.2" cy="148.9" r="4.5" fill="#2563eb"/><line x1="510" y1="300" x2="860" y2="300" stroke="#1f2937" stroke-width="2" marker-end="url(#ah-ink)" stroke-linecap="round"/><line x1="510" y1="300" x2="510" y2="118" stroke="#1f2937" stroke-width="2" marker-end="url(#ah-ink)" stroke-linecap="round"/><polyline points="562.3,143.1 588.5,195.4 614.6,221.5 666.9,247.7 719.2,260.8 823.8,273.8" fill="none" stroke="#f59e0b" stroke-width="2.5" stroke-linejoin="round" stroke-linecap="round"/><circle cx="562.3" cy="143.1" r="4.5" fill="#f59e0b"/><circle cx="588.5" cy="195.4" r="4.5" fill="#f59e0b"/><circle cx="614.6" cy="221.5" r="4.5" fill="#f59e0b"/><circle cx="666.9" cy="247.7" r="4.5" fill="#f59e0b"/><circle cx="719.2" cy="260.8" r="4.5" fill="#f59e0b"/><circle cx="823.8" cy="273.8" r="4.5" fill="#f59e0b"/><text x="225" y="135" text-anchor="middle" font-size="15" fill="#2563eb" font-weight="700"><tspan x="225" dy="0">y / x = 2 không đổi</tspan></text><text x="225" y="155" text-anchor="middle" font-size="13" fill="#1f2937"><tspan x="225" dy="0">x tăng gấp đôi ⇒ y tăng gấp đôi</tspan></text><text x="705" y="135" text-anchor="middle" font-size="15" fill="#f59e0b" font-weight="700"><tspan x="705" dy="0">x · y = 12 không đổi</tspan></text><text x="705" y="155" text-anchor="middle" font-size="13" fill="#1f2937"><tspan x="705" dy="0">x tăng gấp đôi ⇒ y giảm một nửa</tspan></text><text x="110" y="318" text-anchor="middle" font-size="14" fill="#1f2937" font-style="italic"><tspan x="110" dy="0">x</tspan></text><text x="560" y="318" text-anchor="middle" font-size="14" fill="#1f2937" font-style="italic"><tspan x="560" dy="0">x</tspan></text>
</g>
</svg>
