<svg xmlns="http://www.w3.org/2000/svg" viewBox="0 0 900 336" width="900" height="336" font-family="Segoe UI, Arial, sans-serif">
<defs><marker id="ah-ink" viewBox="0 0 10 10" refX="9" refY="5" markerWidth="7" markerHeight="7" orient="auto-start-reverse"><path d="M0,0 L10,5 L0,10 z" fill="#1f2937"/></marker><marker id="ah-red" viewBox="0 0 10 10" refX="9" refY="5" markerWidth="7" markerHeight="7" orient="auto-start-reverse"><path d="M0,0 L10,5 L0,10 z" fill="#e4572e"/></marker><marker id="ah-blue" viewBox="0 0 10 10" refX="9" refY="5" markerWidth="7" markerHeight="7" orient="auto-start-reverse"><path d="M0,0 L10,5 L0,10 z" fill="#2563eb"/></marker><marker id="ah-green" viewBox="0 0 10 10" refX="9" refY="5" markerWidth="7" markerHeight="7" orient="auto-start-reverse"><path d="M0,0 L10,5 L0,10 z" fill="#059669"/></marker><marker id="ah-orange" viewBox="0 0 10 10" refX="9" refY="5" markerWidth="7" markerHeight="7" orient="auto-start-reverse"><path d="M0,0 L10,5 L0,10 z" fill="#f59e0b"/></marker><marker id="ah-purple" viewBox="0 0 10 10" refX="9" refY="5" markerWidth="7" markerHeight="7" orient="auto-start-reverse"><path d="M0,0 L10,5 L0,10 z" fill="#7c3aed"/></marker><marker id="ah-soft" viewBox="0 0 10 10" refX="9" refY="5" markerWidth="7" markerHeight="7" orient="auto-start-reverse"><path d="M0,0 L10,5 L0,10 z" fill="#6b7280"/></marker><marker id="ah-teal" viewBox="0 0 10 10" refX="9" refY="5" markerWidth="7" markerHeight="7" orient="auto-start-reverse"><path d="M0,0 L10,5 L0,10 z" fill="#0d9488"/></marker><marker id="ah-pink" viewBox="0 0 10 10" refX="9" refY="5" markerWidth="7" markerHeight="7" orient="auto-start-reverse"><path d="M0,0 L10,5 L0,10 z" fill="#db2777"/></marker><marker id="ah-brown" viewBox="0 0 10 10" refX="9" refY="5" markerWidth="7" markerHeight="7" orient="auto-start-reverse"><path d="M0,0 L10,5 L0,10 z" fill="#92400e"/></marker></defs>
<rect x="0" y="0" width="900" height="336" rx="12" fill="#ffffff" stroke="#e5e7eb"/>
<text x="450" y="28" text-anchor="middle" font-size="18" font-weight="700" fill="#1f2937">Cơ chế xác định giới tính ở người (NST giới tính)</text>
<g transform="translate(0,44)">
<rect x="130" y="10" width="240" height="50" rx="8" fill="#fce7f3" stroke="#db2777" stroke-width="1.5"/><text x="250" y="40.6" text-anchor="middle" font-size="16" fill="#1f2937" font-weight="700"><tspan x="250" dy="0">Mẹ: 44A + XX</tspan></text><rect x="530" y="10" width="240" height="50" rx="8" fill="#dbeafe" stroke="#2563eb" stroke-width="1.5"/><text x="650" y="40.6" text-anchor="middle" font-size="16" fill="#1f2937" font-weight="700"><tspan x="650" dy="0">Bố: 44A + XY</tspan></text><text x="450" y="42" text-anchor="middle" font-size="24" fill="#1f2937" font-weight="700"><tspan x="450" dy="0">×</tspan></text><line x1="250" y1="62" x2="250" y2="92" stroke="#1f2937" stroke-width="2" marker-end="url(#ah-ink)" stroke-linecap="round"/><line x1="600" y1="62" x2="560" y2="92" stroke="#1f2937" stroke-width="2" marker-end="url(#ah-ink)" stroke-linecap="round"/><line x1="700" y1="62" x2="740" y2="92" stroke="#1f2937" stroke-width="2" marker-end="url(#ah-ink)" stroke-linecap="round"/><rect x="190" y="94" width="120" height="40" rx="8" fill="#fce7f3" stroke="#db2777" stroke-width="1.5"/><text x="250" y="119.3" text-anchor="middle" font-size="15" fill="#1f2937"><tspan x="250" dy="0">22A + X</tspan></text><rect x="500" y="94" width="120" height="40" rx="8" fill="#dbeafe" stroke="#2563eb" stroke-width="1.5"/><text x="560" y="119.3" text-anchor="middle" font-size="15" fill="#1f2937"><tspan x="560" dy="0">22A + X</tspan></text><rect x="680" y="94" width="120" height="40" rx="8" fill="#dbeafe" stroke="#2563eb" stroke-width="1.5"/><text x="740" y="119.3" text-anchor="middle" font-size="15" fill="#1f2937"><tspan x="740" dy="0">22A + Y</tspan></text><text x="250" y="152" text-anchor="middle" font-size="12.5" fill="#6b7280"><tspan x="250" dy="0">Giao tử: 1 loại</tspan></text><text x="650" y="152" text-anchor="middle" font-size="12.5" fill="#6b7280"><tspan x="650" dy="0">Giao tử: 2 loại tỉ lệ 1 : 1</tspan></text><line x1="250" y1="160" x2="330" y2="200" stroke="#6b7280" stroke-width="2" marker-end="url(#ah-soft)" stroke-linecap="round"/><line x1="560" y1="136" x2="340" y2="200" stroke="#6b7280" stroke-width="2" marker-end="url(#ah-soft)" stroke-linecap="round"/><line x1="250" y1="160" x2="560" y2="200" stroke="#6b7280" stroke-width="2" marker-end="url(#ah-soft)" stroke-linecap="round"/><line x1="740" y1="136" x2="580" y2="200" stroke="#6b7280" stroke-width="2" marker-end="url(#ah-soft)" stroke-linecap="round"/><rect x="230" y="202" width="200" height="50" rx="8" fill="#fce7f3" stroke="#db2777" stroke-width="1.5"/><text x="330" y="232.3" text-anchor="middle" font-size="15" fill="#1f2937" font-weight="700"><tspan x="330" dy="0">Con gái: 44A + XX</tspan></text><rect x="470" y="202" width="200" height="50" rx="8" fill="#dbeafe" stroke="#2563eb" stroke-width="1.5"/><text x="570" y="232.3" text-anchor="middle" font-size="15" fill="#1f2937" font-weight="700"><tspan x="570" dy="0">Con trai: 44A + XY</tspan></text><text x="450" y="280" text-anchor="middle" font-size="13.5" fill="#1f2937"><tspan x="450" dy="0">Tỉ lệ con trai : con gái ≈ 1 : 1 · Giới tính của con do loại TINH TRÙNG (X hay Y) kết hợp với trứng quyết định</tspan></text>
</g>
</svg>
