<svg xmlns="http://www.w3.org/2000/svg" viewBox="0 0 900 416" width="900" height="416" font-family="Segoe UI, Arial, sans-serif">
<defs><marker id="ah-ink" viewBox="0 0 10 10" refX="9" refY="5" markerWidth="7" markerHeight="7" orient="auto-start-reverse"><path d="M0,0 L10,5 L0,10 z" fill="#1f2937"/></marker><marker id="ah-red" viewBox="0 0 10 10" refX="9" refY="5" markerWidth="7" markerHeight="7" orient="auto-start-reverse"><path d="M0,0 L10,5 L0,10 z" fill="#e4572e"/></marker><marker id="ah-blue" viewBox="0 0 10 10" refX="9" refY="5" markerWidth="7" markerHeight="7" orient="auto-start-reverse"><path d="M0,0 L10,5 L0,10 z" fill="#2563eb"/></marker><marker id="ah-green" viewBox="0 0 10 10" refX="9" refY="5" markerWidth="7" markerHeight="7" orient="auto-start-reverse"><path d="M0,0 L10,5 L0,10 z" fill="#059669"/></marker><marker id="ah-orange" viewBox="0 0 10 10" refX="9" refY="5" markerWidth="7" markerHeight="7" orient="auto-start-reverse"><path d="M0,0 L10,5 L0,10 z" fill="#f59e0b"/></marker><marker id="ah-purple" viewBox="0 0 10 10" refX="9" refY="5" markerWidth="7" markerHeight="7" orient="auto-start-reverse"><path d="M0,0 L10,5 L0,10 z" fill="#7c3aed"/></marker><marker id="ah-soft" viewBox="0 0 10 10" refX="9" refY="5" markerWidth="7" markerHeight="7" orient="auto-start-reverse"><path d="M0,0 L10,5 L0,10 z" fill="#6b7280"/></marker><marker id="ah-teal" viewBox="0 0 10 10" refX="9" refY="5" markerWidth="7" markerHeight="7" orient="auto-start-reverse"><path d="M0,0 L10,5 L0,10 z" fill="#0d9488"/></marker><marker id="ah-pink" viewBox="0 0 10 10" refX="9" refY="5" markerWidth="7" markerHeight="7" orient="auto-start-reverse"><path d="M0,0 L10,5 L0,10 z" fill="#db2777"/></marker><marker id="ah-brown" viewBox="0 0 10 10" refX="9" refY="5" markerWidth="7" markerHeight="7" orient="auto-start-reverse"><path d="M0,0 L10,5 L0,10 z" fill="#92400e"/></marker></defs>
<rect x="0" y="0" width="900" height="416" rx="12" fill="#ffffff" stroke="#e5e7eb"/>
<text x="450" y="28" text-anchor="middle" font-size="18" font-weight="700" fill="#1f2937">Ảnh của vật tạo bởi thấu kính hội tụ (vẽ bằng 2 tia đặc biệt)</text>
<g transform="translate(0,44)">
<rect x="6" y="0" width="438" height="340" rx="8" fill="#f8fafc" stroke="#e5e7eb" stroke-width="1.5"/><text x="225" y="24" text-anchor="middle" font-size="14.5" fill="#2563eb" font-weight="700"><tspan x="225" dy="0">Thấu kính hội tụ: vật ngoài tiêu cự (d &gt; f)</tspan></text><line x1="16" y1="200" x2="434" y2="200" stroke="#1f2937" stroke-width="1.5" stroke-linecap="round"/><line x1="260" y1="70" x2="260" y2="288" stroke="#2563eb" stroke-width="3" stroke-linecap="round"/><line x1="260" y1="200" x2="260" y2="68" stroke="#2563eb" stroke-width="3" marker-end="url(#ah-blue)" stroke-linecap="round"/><line x1="260" y1="200" x2="260" y2="290" stroke="#2563eb" stroke-width="3" marker-end="url(#ah-blue)" stroke-linecap="round"/><circle cx="190" cy="200" r="4" fill="#1f2937"/><text x="190" y="218" text-anchor="middle" font-size="13" fill="#1f2937" font-weight="700"><tspan x="190" dy="0">F</tspan></text><circle cx="330" cy="200" r="4" fill="#1f2937"/><text x="330" y="218" text-anchor="middle" font-size="13" fill="#1f2937" font-weight="700"><tspan x="330" dy="0">F'</tspan></text><text x="270" y="218" text-anchor="middle" font-size="13" fill="#1f2937" font-weight="700"><tspan x="270" dy="0">O</tspan></text><line x1="90" y1="200" x2="90" y2="130" stroke="#059669" stroke-width="3" marker-end="url(#ah-green)" stroke-linecap="round"/><text x="80" y="124" text-anchor="middle" font-size="14" fill="#059669" font-weight="700"><tspan x="80" dy="0">B</tspan></text><text x="90" y="218" text-anchor="middle" font-size="14" fill="#059669" font-weight="700"><tspan x="90" dy="0">A</tspan></text><line x1="90" y1="130" x2="260" y2="130" stroke="#e4572e" stroke-width="1.8" stroke-linecap="round"/><line x1="260" y1="130" x2="425" y2="295" stroke="#e4572e" stroke-width="1.8" marker-end="url(#ah-red)" stroke-linecap="round"/><line x1="90" y1="130" x2="413" y2="263" stroke="#7c3aed" stroke-width="1.8" marker-end="url(#ah-purple)" stroke-linecap="round"/><line x1="379" y1="200" x2="379" y2="249" stroke="#f59e0b" stroke-width="3" marker-end="url(#ah-orange)" stroke-linecap="round"/><text x="391" y="255" text-anchor="middle" font-size="14" fill="#f59e0b" font-weight="700"><tspan x="391" dy="0">B'</tspan></text><text x="379" y="192" text-anchor="middle" font-size="14" fill="#f59e0b" font-weight="700"><tspan x="379" dy="0">A'</tspan></text><text x="225" y="312" text-anchor="middle" font-size="13.5" fill="#f59e0b" font-weight="700"><tspan x="225" dy="0">d &gt; f: ẢNH THẬT, NGƯỢC CHIỀU vật</tspan></text><text x="225" y="332" text-anchor="middle" font-size="12.5" fill="#1f2937"><tspan x="225" dy="0">(hứng được trên màn; d &gt; 2f ảnh nhỏ hơn vật)</tspan></text><rect x="456" y="0" width="438" height="340" rx="8" fill="#f8fafc" stroke="#e5e7eb" stroke-width="1.5"/><text x="675" y="24" text-anchor="middle" font-size="14.5" fill="#059669" font-weight="700"><tspan x="675" dy="0">Thấu kính hội tụ: vật trong tiêu cự (d &lt; f)</tspan></text><line x1="466" y1="200" x2="884" y2="200" stroke="#1f2937" stroke-width="1.5" stroke-linecap="round"/><line x1="710" y1="70" x2="710" y2="288" stroke="#2563eb" stroke-width="3" stroke-linecap="round"/><line x1="710" y1="200" x2="710" y2="68" stroke="#2563eb" stroke-width="3" marker-end="url(#ah-blue)" stroke-linecap="round"/><line x1="710" y1="200" x2="710" y2="290" stroke="#2563eb" stroke-width="3" marker-end="url(#ah-blue)" stroke-linecap="round"/><circle cx="610" cy="200" r="4" fill="#1f2937"/><text x="610" y="218" text-anchor="middle" font-size="13" fill="#1f2937" font-weight="700"><tspan x="610" dy="0">F</tspan></text><circle cx="810" cy="200" r="4" fill="#1f2937"/><text x="810" y="218" text-anchor="middle" font-size="13" fill="#1f2937" font-weight="700"><tspan x="810" dy="0">F'</tspan></text><text x="720" y="218" text-anchor="middle" font-size="13" fill="#1f2937" font-weight="700"><tspan x="720" dy="0">O</tspan></text><line x1="650" y1="200" x2="650" y2="160" stroke="#059669" stroke-width="3" marker-end="url(#ah-green)" stroke-linecap="round"/><text x="640" y="154" text-anchor="middle" font-size="14" fill="#059669" font-weight="700"><tspan x="640" dy="0">B</tspan></text><text x="650" y="218" text-anchor="middle" font-size="14" fill="#059669" font-weight="700"><tspan x="650" dy="0">A</tspan></text><line x1="650" y1="160" x2="710" y2="160" stroke="#e4572e" stroke-width="1.8" stroke-linecap="round"/><line x1="710" y1="160" x2="880" y2="228" stroke="#e4572e" stroke-width="1.8" marker-end="url(#ah-red)" stroke-linecap="round"/><line x1="650" y1="160" x2="764" y2="236" stroke="#7c3aed" stroke-width="1.8" marker-end="url(#ah-purple)" stroke-linecap="round"/><line x1="710" y1="160" x2="560" y2="100" stroke="#e4572e" stroke-width="1.5" stroke-dasharray="5 4" stroke-linecap="round"/><line x1="650" y1="160" x2="560" y2="100" stroke="#7c3aed" stroke-width="1.5" stroke-dasharray="5 4" stroke-linecap="round"/><line x1="560" y1="200" x2="560" y2="100" stroke="#f59e0b" stroke-width="3" stroke-dasharray="7 4" stroke-linecap="round"/><text x="546" y="94" text-anchor="middle" font-size="14" fill="#f59e0b" font-weight="700"><tspan x="546" dy="0">B'</tspan></text><text x="554" y="218" text-anchor="middle" font-size="13" fill="#f59e0b" font-weight="700"><tspan x="554" dy="0">A'</tspan></text><text x="675" y="312" text-anchor="middle" font-size="13.5" fill="#f59e0b" font-weight="700"><tspan x="675" dy="0">d &lt; f: ẢNH ẢO, CÙNG CHIỀU, LỚN HƠN vật</tspan></text><text x="675" y="332" text-anchor="middle" font-size="12.5" fill="#1f2937"><tspan x="675" dy="0">(kính lúp hoạt động theo nguyên tắc này)</tspan></text><text x="450" y="362" text-anchor="middle" font-size="13" fill="#1f2937"><tspan x="450" dy="0">Tia đỏ: song song trục chính → ló qua F' · Tia tím: qua quang tâm O → truyền thẳng · Nét đứt: đường kéo dài (ảnh ảo)</tspan></text>
</g>
</svg>
